<?xml version="1.0" encoding="utf-8" standalone="no"?>
<!DOCTYPE svg PUBLIC "-//W3C//DTD SVG 1.1//EN"
  "http://www.w3.org/Graphics/SVG/1.1/DTD/svg11.dtd">
<svg xmlns:xlink="http://www.w3.org/1999/xlink" width="648pt" height="396pt" viewBox="0 0 648 396" xmlns="http://www.w3.org/2000/svg" version="1.1">
 <metadata>
  <rdf:RDF xmlns:dc="http://purl.org/dc/elements/1.1/" xmlns:cc="http://creativecommons.org/ns#" xmlns:rdf="http://www.w3.org/1999/02/22-rdf-syntax-ns#">
   <cc:Work>
    <dc:type rdf:resource="http://purl.org/dc/dcmitype/StillImage"/>
    <dc:date>2026-07-11T13:22:14.120584</dc:date>
    <dc:format>image/svg+xml</dc:format>
    <dc:creator>
     <cc:Agent>
      <dc:title>Matplotlib v3.9.1, https://matplotlib.org/</dc:title>
     </cc:Agent>
    </dc:creator>
   </cc:Work>
  </rdf:RDF>
 </metadata>
 <defs>
  <style type="text/css">*{stroke-linejoin: round; stroke-linecap: butt}</style>
 </defs>
 <g id="figure_1">
  <g id="patch_1">
   <path d="M 0 396 
L 648 396 
L 648 0 
L 0 0 
z
" style="fill: #ffffff"/>
  </g>
  <g id="axes_1">
   <g id="patch_2">
    <path d="M 57.17 354.04 
L 637.2 354.04 
L 637.2 26.88 
L 57.17 26.88 
z
" style="fill: #ffffff"/>
   </g>
   <g id="patch_3">
    <path d="M 83.535 354.04 
L 99.425232 354.04 
L 99.425232 354.04 
L 83.535 354.04 
z
" clip-path="url(#p67e0f24579)" style="fill: #94a3b8"/>
   </g>
   <g id="patch_4">
    <path d="M 101.799635 354.04 
L 117.689867 354.04 
L 117.689867 354.04 
L 101.799635 354.04 
z
" clip-path="url(#p67e0f24579)" style="fill: #94a3b8"/>
   </g>
   <g id="patch_5">
    <path d="M 120.064269 354.04 
L 135.954501 354.04 
L 135.954501 354.04 
L 120.064269 354.04 
z
" clip-path="url(#p67e0f24579)" style="fill: #94a3b8"/>
   </g>
   <g id="patch_6">
    <path d="M 138.328904 354.04 
L 154.219136 354.04 
L 154.219136 354.04 
L 138.328904 354.04 
z
" clip-path="url(#p67e0f24579)" style="fill: #94a3b8"/>
   </g>
   <g id="patch_7">
    <path d="M 156.593538 354.04 
L 172.48377 354.04 
L 172.48377 354.04 
L 156.593538 354.04 
z
" clip-path="url(#p67e0f24579)" style="fill: #94a3b8"/>
   </g>
   <g id="patch_8">
    <path d="M 174.858173 354.04 
L 190.748405 354.04 
L 190.748405 354.04 
L 174.858173 354.04 
z
" clip-path="url(#p67e0f24579)" style="fill: #94a3b8"/>
   </g>
   <g id="patch_9">
    <path d="M 193.122807 354.04 
L 209.013039 354.04 
L 209.013039 353.723192 
L 193.122807 353.723192 
z
" clip-path="url(#p67e0f24579)" style="fill: #94a3b8"/>
   </g>
   <g id="patch_10">
    <path d="M 211.387442 354.04 
L 227.277674 354.04 
L 227.277674 352.931171 
L 211.387442 352.931171 
z
" clip-path="url(#p67e0f24579)" style="fill: #94a3b8"/>
   </g>
   <g id="patch_11">
    <path d="M 229.652077 354.04 
L 245.542309 354.04 
L 245.542309 349.921492 
L 229.652077 349.921492 
z
" clip-path="url(#p67e0f24579)" style="fill: #94a3b8"/>
   </g>
   <g id="patch_12">
    <path d="M 247.916711 354.04 
L 263.806943 354.04 
L 263.806943 339.783627 
L 247.916711 339.783627 
z
" clip-path="url(#p67e0f24579)" style="fill: #94a3b8"/>
   </g>
   <g id="patch_13">
    <path d="M 266.181346 354.04 
L 282.071578 354.04 
L 282.071578 308.419606 
L 266.181346 308.419606 
z
" clip-path="url(#p67e0f24579)" style="fill: #94a3b8"/>
   </g>
   <g id="patch_14">
    <path d="M 284.44598 354.04 
L 300.336212 354.04 
L 300.336212 252.344539 
L 284.44598 252.344539 
z
" clip-path="url(#p67e0f24579)" style="fill: #94a3b8"/>
   </g>
   <g id="patch_15">
    <path d="M 302.710615 354.04 
L 318.600847 354.04 
L 318.600847 169.340767 
L 302.710615 169.340767 
z
" clip-path="url(#p67e0f24579)" style="fill: #94a3b8"/>
   </g>
   <g id="patch_16">
    <path d="M 320.975249 354.04 
L 336.865481 354.04 
L 336.865481 71.60541 
L 320.975249 71.60541 
z
" clip-path="url(#p67e0f24579)" style="fill: #94a3b8"/>
   </g>
   <g id="patch_17">
    <path d="M 339.239884 354.04 
L 355.130116 354.04 
L 355.130116 42.459048 
L 339.239884 42.459048 
z
" clip-path="url(#p67e0f24579)" style="fill: #94a3b8"/>
   </g>
   <g id="patch_18">
    <path d="M 357.504519 354.04 
L 373.394751 354.04 
L 373.394751 66.378073 
L 357.504519 66.378073 
z
" clip-path="url(#p67e0f24579)" style="fill: #94a3b8"/>
   </g>
   <g id="patch_19">
    <path d="M 375.769153 354.04 
L 391.659385 354.04 
L 391.659385 165.539068 
L 375.769153 165.539068 
z
" clip-path="url(#p67e0f24579)" style="fill: #94a3b8"/>
   </g>
   <g id="patch_20">
    <path d="M 394.033788 354.04 
L 409.92402 354.04 
L 409.92402 253.294964 
L 394.033788 253.294964 
z
" clip-path="url(#p67e0f24579)" style="fill: #94a3b8"/>
   </g>
   <g id="patch_21">
    <path d="M 412.298422 354.04 
L 428.188654 354.04 
L 428.188654 313.646943 
L 412.298422 313.646943 
z
" clip-path="url(#p67e0f24579)" style="fill: #94a3b8"/>
   </g>
   <g id="patch_22">
    <path d="M 430.563057 354.04 
L 446.453289 354.04 
L 446.453289 339.942031 
L 430.563057 339.942031 
z
" clip-path="url(#p67e0f24579)" style="fill: #94a3b8"/>
   </g>
   <g id="patch_23">
    <path d="M 448.827691 354.04 
L 464.717923 354.04 
L 464.717923 349.129472 
L 448.827691 349.129472 
z
" clip-path="url(#p67e0f24579)" style="fill: #94a3b8"/>
   </g>
   <g id="patch_24">
    <path d="M 467.092326 354.04 
L 482.982558 354.04 
L 482.982558 352.455959 
L 467.092326 352.455959 
z
" clip-path="url(#p67e0f24579)" style="fill: #94a3b8"/>
   </g>
   <g id="patch_25">
    <path d="M 485.356961 354.04 
L 501.247193 354.04 
L 501.247193 353.723192 
L 485.356961 353.723192 
z
" clip-path="url(#p67e0f24579)" style="fill: #94a3b8"/>
   </g>
   <g id="patch_26">
    <path d="M 503.621595 354.04 
L 519.511827 354.04 
L 519.511827 354.04 
L 503.621595 354.04 
z
" clip-path="url(#p67e0f24579)" style="fill: #94a3b8"/>
   </g>
   <g id="patch_27">
    <path d="M 521.88623 354.04 
L 537.776462 354.04 
L 537.776462 354.04 
L 521.88623 354.04 
z
" clip-path="url(#p67e0f24579)" style="fill: #94a3b8"/>
   </g>
   <g id="patch_28">
    <path d="M 540.150864 354.04 
L 556.041096 354.04 
L 556.041096 354.04 
L 540.150864 354.04 
z
" clip-path="url(#p67e0f24579)" style="fill: #94a3b8"/>
   </g>
   <g id="patch_29">
    <path d="M 558.415499 354.04 
L 574.305731 354.04 
L 574.305731 354.04 
L 558.415499 354.04 
z
" clip-path="url(#p67e0f24579)" style="fill: #94a3b8"/>
   </g>
   <g id="patch_30">
    <path d="M 576.680133 354.04 
L 592.570365 354.04 
L 592.570365 354.04 
L 576.680133 354.04 
z
" clip-path="url(#p67e0f24579)" style="fill: #94a3b8"/>
   </g>
   <g id="patch_31">
    <path d="M 594.944768 354.04 
L 610.835 354.04 
L 610.835 354.04 
L 594.944768 354.04 
z
" clip-path="url(#p67e0f24579)" style="fill: #94a3b8"/>
   </g>
   <g id="matplotlib.axis_1">
    <g id="xtick_1">
     <g id="line2d_1">
      <defs>
       <path id="m5dfb8d4134" d="M 0 0 
L 0 3.5 
" style="stroke: #000000; stroke-width: 0.8"/>
      </defs>
      <g>
       <use xlink:href="#m5dfb8d4134" x="82.347799" y="354.04" style="stroke: #000000; stroke-width: 0.8"/>
      </g>
     </g>
     <g id="text_1">
      <!-- −3 -->
      <g transform="translate(74.976705 368.638437) scale(0.1 -0.1)">
       <defs>
        <path id="DejaVuSans-2212" d="M 678 2272 
L 4684 2272 
L 4684 1741 
L 678 1741 
L 678 2272 
z
" transform="scale(0.015625)"/>
        <path id="DejaVuSans-33" d="M 2597 2516 
Q 3050 2419 3304 2112 
Q 3559 1806 3559 1356 
Q 3559 666 3084 287 
Q 2609 -91 1734 -91 
Q 1441 -91 1130 -33 
Q 819 25 488 141 
L 488 750 
Q 750 597 1062 519 
Q 1375 441 1716 441 
Q 2309 441 2620 675 
Q 2931 909 2931 1356 
Q 2931 1769 2642 2001 
Q 2353 2234 1838 2234 
L 1294 2234 
L 1294 2753 
L 1863 2753 
Q 2328 2753 2575 2939 
Q 2822 3125 2822 3475 
Q 2822 3834 2567 4026 
Q 2313 4219 1838 4219 
Q 1578 4219 1281 4162 
Q 984 4106 628 3988 
L 628 4550 
Q 988 4650 1302 4700 
Q 1616 4750 1894 4750 
Q 2613 4750 3031 4423 
Q 3450 4097 3450 3541 
Q 3450 3153 3228 2886 
Q 3006 2619 2597 2516 
z
" transform="scale(0.015625)"/>
       </defs>
       <use xlink:href="#DejaVuSans-2212"/>
       <use xlink:href="#DejaVuSans-33" x="83.789062"/>
      </g>
     </g>
    </g>
    <g id="xtick_2">
     <g id="line2d_2">
      <g>
       <use xlink:href="#m5dfb8d4134" x="170.626866" y="354.04" style="stroke: #000000; stroke-width: 0.8"/>
      </g>
     </g>
     <g id="text_2">
      <!-- −2 -->
      <g transform="translate(163.255772 368.638437) scale(0.1 -0.1)">
       <defs>
        <path id="DejaVuSans-32" d="M 1228 531 
L 3431 531 
L 3431 0 
L 469 0 
L 469 531 
Q 828 903 1448 1529 
Q 2069 2156 2228 2338 
Q 2531 2678 2651 2914 
Q 2772 3150 2772 3378 
Q 2772 3750 2511 3984 
Q 2250 4219 1831 4219 
Q 1534 4219 1204 4116 
Q 875 4013 500 3803 
L 500 4441 
Q 881 4594 1212 4672 
Q 1544 4750 1819 4750 
Q 2544 4750 2975 4387 
Q 3406 4025 3406 3419 
Q 3406 3131 3298 2873 
Q 3191 2616 2906 2266 
Q 2828 2175 2409 1742 
Q 1991 1309 1228 531 
z
" transform="scale(0.015625)"/>
       </defs>
       <use xlink:href="#DejaVuSans-2212"/>
       <use xlink:href="#DejaVuSans-32" x="83.789062"/>
      </g>
     </g>
    </g>
    <g id="xtick_3">
     <g id="line2d_3">
      <g>
       <use xlink:href="#m5dfb8d4134" x="258.905933" y="354.04" style="stroke: #000000; stroke-width: 0.8"/>
      </g>
     </g>
     <g id="text_3">
      <!-- −1 -->
      <g transform="translate(251.534839 368.638437) scale(0.1 -0.1)">
       <defs>
        <path id="DejaVuSans-31" d="M 794 531 
L 1825 531 
L 1825 4091 
L 703 3866 
L 703 4441 
L 1819 4666 
L 2450 4666 
L 2450 531 
L 3481 531 
L 3481 0 
L 794 0 
L 794 531 
z
" transform="scale(0.015625)"/>
       </defs>
       <use xlink:href="#DejaVuSans-2212"/>
       <use xlink:href="#DejaVuSans-31" x="83.789062"/>
      </g>
     </g>
    </g>
    <g id="xtick_4">
     <g id="line2d_4">
      <g>
       <use xlink:href="#m5dfb8d4134" x="347.185" y="354.04" style="stroke: #000000; stroke-width: 0.8"/>
      </g>
     </g>
     <g id="text_4">
      <!-- 0 -->
      <g transform="translate(344.00375 368.638437) scale(0.1 -0.1)">
       <defs>
        <path id="DejaVuSans-30" d="M 2034 4250 
Q 1547 4250 1301 3770 
Q 1056 3291 1056 2328 
Q 1056 1369 1301 889 
Q 1547 409 2034 409 
Q 2525 409 2770 889 
Q 3016 1369 3016 2328 
Q 3016 3291 2770 3770 
Q 2525 4250 2034 4250 
z
M 2034 4750 
Q 2819 4750 3233 4129 
Q 3647 3509 3647 2328 
Q 3647 1150 3233 529 
Q 2819 -91 2034 -91 
Q 1250 -91 836 529 
Q 422 1150 422 2328 
Q 422 3509 836 4129 
Q 1250 4750 2034 4750 
z
" transform="scale(0.015625)"/>
       </defs>
       <use xlink:href="#DejaVuSans-30"/>
      </g>
     </g>
    </g>
    <g id="xtick_5">
     <g id="line2d_5">
      <g>
       <use xlink:href="#m5dfb8d4134" x="435.464067" y="354.04" style="stroke: #000000; stroke-width: 0.8"/>
      </g>
     </g>
     <g id="text_5">
      <!-- 1 -->
      <g transform="translate(432.282817 368.638437) scale(0.1 -0.1)">
       <use xlink:href="#DejaVuSans-31"/>
      </g>
     </g>
    </g>
    <g id="xtick_6">
     <g id="line2d_6">
      <g>
       <use xlink:href="#m5dfb8d4134" x="523.743134" y="354.04" style="stroke: #000000; stroke-width: 0.8"/>
      </g>
     </g>
     <g id="text_6">
      <!-- 2 -->
      <g transform="translate(520.561884 368.638437) scale(0.1 -0.1)">
       <use xlink:href="#DejaVuSans-32"/>
      </g>
     </g>
    </g>
    <g id="xtick_7">
     <g id="line2d_7">
      <g>
       <use xlink:href="#m5dfb8d4134" x="612.022201" y="354.04" style="stroke: #000000; stroke-width: 0.8"/>
      </g>
     </g>
     <g id="text_7">
      <!-- 3 -->
      <g transform="translate(608.840951 368.638437) scale(0.1 -0.1)">
       <use xlink:href="#DejaVuSans-33"/>
      </g>
     </g>
    </g>
    <g id="text_8">
     <!-- West-conference coefficient -->
     <g transform="translate(277.534219 382.316562) scale(0.1 -0.1)">
      <defs>
       <path id="DejaVuSans-57" d="M 213 4666 
L 850 4666 
L 1831 722 
L 2809 4666 
L 3519 4666 
L 4500 722 
L 5478 4666 
L 6119 4666 
L 4947 0 
L 4153 0 
L 3169 4050 
L 2175 0 
L 1381 0 
L 213 4666 
z
" transform="scale(0.015625)"/>
       <path id="DejaVuSans-65" d="M 3597 1894 
L 3597 1613 
L 953 1613 
Q 991 1019 1311 708 
Q 1631 397 2203 397 
Q 2534 397 2845 478 
Q 3156 559 3463 722 
L 3463 178 
Q 3153 47 2828 -22 
Q 2503 -91 2169 -91 
Q 1331 -91 842 396 
Q 353 884 353 1716 
Q 353 2575 817 3079 
Q 1281 3584 2069 3584 
Q 2775 3584 3186 3129 
Q 3597 2675 3597 1894 
z
M 3022 2063 
Q 3016 2534 2758 2815 
Q 2500 3097 2075 3097 
Q 1594 3097 1305 2825 
Q 1016 2553 972 2059 
L 3022 2063 
z
" transform="scale(0.015625)"/>
       <path id="DejaVuSans-73" d="M 2834 3397 
L 2834 2853 
Q 2591 2978 2328 3040 
Q 2066 3103 1784 3103 
Q 1356 3103 1142 2972 
Q 928 2841 928 2578 
Q 928 2378 1081 2264 
Q 1234 2150 1697 2047 
L 1894 2003 
Q 2506 1872 2764 1633 
Q 3022 1394 3022 966 
Q 3022 478 2636 193 
Q 2250 -91 1575 -91 
Q 1294 -91 989 -36 
Q 684 19 347 128 
L 347 722 
Q 666 556 975 473 
Q 1284 391 1588 391 
Q 1994 391 2212 530 
Q 2431 669 2431 922 
Q 2431 1156 2273 1281 
Q 2116 1406 1581 1522 
L 1381 1569 
Q 847 1681 609 1914 
Q 372 2147 372 2553 
Q 372 3047 722 3315 
Q 1072 3584 1716 3584 
Q 2034 3584 2315 3537 
Q 2597 3491 2834 3397 
z
" transform="scale(0.015625)"/>
       <path id="DejaVuSans-74" d="M 1172 4494 
L 1172 3500 
L 2356 3500 
L 2356 3053 
L 1172 3053 
L 1172 1153 
Q 1172 725 1289 603 
Q 1406 481 1766 481 
L 2356 481 
L 2356 0 
L 1766 0 
Q 1100 0 847 248 
Q 594 497 594 1153 
L 594 3053 
L 172 3053 
L 172 3500 
L 594 3500 
L 594 4494 
L 1172 4494 
z
" transform="scale(0.015625)"/>
       <path id="DejaVuSans-2d" d="M 313 2009 
L 1997 2009 
L 1997 1497 
L 313 1497 
L 313 2009 
z
" transform="scale(0.015625)"/>
       <path id="DejaVuSans-63" d="M 3122 3366 
L 3122 2828 
Q 2878 2963 2633 3030 
Q 2388 3097 2138 3097 
Q 1578 3097 1268 2742 
Q 959 2388 959 1747 
Q 959 1106 1268 751 
Q 1578 397 2138 397 
Q 2388 397 2633 464 
Q 2878 531 3122 666 
L 3122 134 
Q 2881 22 2623 -34 
Q 2366 -91 2075 -91 
Q 1284 -91 818 406 
Q 353 903 353 1747 
Q 353 2603 823 3093 
Q 1294 3584 2113 3584 
Q 2378 3584 2631 3529 
Q 2884 3475 3122 3366 
z
" transform="scale(0.015625)"/>
       <path id="DejaVuSans-6f" d="M 1959 3097 
Q 1497 3097 1228 2736 
Q 959 2375 959 1747 
Q 959 1119 1226 758 
Q 1494 397 1959 397 
Q 2419 397 2687 759 
Q 2956 1122 2956 1747 
Q 2956 2369 2687 2733 
Q 2419 3097 1959 3097 
z
M 1959 3584 
Q 2709 3584 3137 3096 
Q 3566 2609 3566 1747 
Q 3566 888 3137 398 
Q 2709 -91 1959 -91 
Q 1206 -91 779 398 
Q 353 888 353 1747 
Q 353 2609 779 3096 
Q 1206 3584 1959 3584 
z
" transform="scale(0.015625)"/>
       <path id="DejaVuSans-6e" d="M 3513 2113 
L 3513 0 
L 2938 0 
L 2938 2094 
Q 2938 2591 2744 2837 
Q 2550 3084 2163 3084 
Q 1697 3084 1428 2787 
Q 1159 2491 1159 1978 
L 1159 0 
L 581 0 
L 581 3500 
L 1159 3500 
L 1159 2956 
Q 1366 3272 1645 3428 
Q 1925 3584 2291 3584 
Q 2894 3584 3203 3211 
Q 3513 2838 3513 2113 
z
" transform="scale(0.015625)"/>
       <path id="DejaVuSans-66" d="M 2375 4863 
L 2375 4384 
L 1825 4384 
Q 1516 4384 1395 4259 
Q 1275 4134 1275 3809 
L 1275 3500 
L 2222 3500 
L 2222 3053 
L 1275 3053 
L 1275 0 
L 697 0 
L 697 3053 
L 147 3053 
L 147 3500 
L 697 3500 
L 697 3744 
Q 697 4328 969 4595 
Q 1241 4863 1831 4863 
L 2375 4863 
z
" transform="scale(0.015625)"/>
       <path id="DejaVuSans-72" d="M 2631 2963 
Q 2534 3019 2420 3045 
Q 2306 3072 2169 3072 
Q 1681 3072 1420 2755 
Q 1159 2438 1159 1844 
L 1159 0 
L 581 0 
L 581 3500 
L 1159 3500 
L 1159 2956 
Q 1341 3275 1631 3429 
Q 1922 3584 2338 3584 
Q 2397 3584 2469 3576 
Q 2541 3569 2628 3553 
L 2631 2963 
z
" transform="scale(0.015625)"/>
       <path id="DejaVuSans-20" transform="scale(0.015625)"/>
       <path id="DejaVuSans-69" d="M 603 3500 
L 1178 3500 
L 1178 0 
L 603 0 
L 603 3500 
z
M 603 4863 
L 1178 4863 
L 1178 4134 
L 603 4134 
L 603 4863 
z
" transform="scale(0.015625)"/>
      </defs>
      <use xlink:href="#DejaVuSans-57"/>
      <use xlink:href="#DejaVuSans-65" x="93.001953"/>
      <use xlink:href="#DejaVuSans-73" x="154.525391"/>
      <use xlink:href="#DejaVuSans-74" x="206.625"/>
      <use xlink:href="#DejaVuSans-2d" x="245.833984"/>
      <use xlink:href="#DejaVuSans-63" x="281.917969"/>
      <use xlink:href="#DejaVuSans-6f" x="336.898438"/>
      <use xlink:href="#DejaVuSans-6e" x="398.080078"/>
      <use xlink:href="#DejaVuSans-66" x="461.458984"/>
      <use xlink:href="#DejaVuSans-65" x="496.664062"/>
      <use xlink:href="#DejaVuSans-72" x="558.1875"/>
      <use xlink:href="#DejaVuSans-65" x="597.050781"/>
      <use xlink:href="#DejaVuSans-6e" x="658.574219"/>
      <use xlink:href="#DejaVuSans-63" x="721.953125"/>
      <use xlink:href="#DejaVuSans-65" x="776.933594"/>
      <use xlink:href="#DejaVuSans-20" x="838.457031"/>
      <use xlink:href="#DejaVuSans-63" x="870.244141"/>
      <use xlink:href="#DejaVuSans-6f" x="925.224609"/>
      <use xlink:href="#DejaVuSans-65" x="986.40625"/>
      <use xlink:href="#DejaVuSans-66" x="1047.929688"/>
      <use xlink:href="#DejaVuSans-66" x="1083.134766"/>
      <use xlink:href="#DejaVuSans-69" x="1118.339844"/>
      <use xlink:href="#DejaVuSans-63" x="1146.123047"/>
      <use xlink:href="#DejaVuSans-69" x="1201.103516"/>
      <use xlink:href="#DejaVuSans-65" x="1228.886719"/>
      <use xlink:href="#DejaVuSans-6e" x="1290.410156"/>
      <use xlink:href="#DejaVuSans-74" x="1353.789062"/>
     </g>
    </g>
   </g>
   <g id="matplotlib.axis_2">
    <g id="ytick_1">
     <g id="line2d_8">
      <path d="M 57.17 354.04 
L 637.2 354.04 
" clip-path="url(#p67e0f24579)" style="fill: none; stroke: #b0b0b0; stroke-opacity: 0.2; stroke-width: 0.8; stroke-linecap: square"/>
     </g>
     <g id="line2d_9">
      <defs>
       <path id="m3a25293a27" d="M 0 0 
L -3.5 0 
" style="stroke: #000000; stroke-width: 0.8"/>
      </defs>
      <g>
       <use xlink:href="#m3a25293a27" x="57.17" y="354.04" style="stroke: #000000; stroke-width: 0.8"/>
      </g>
     </g>
     <g id="text_9">
      <!-- 0 -->
      <g transform="translate(43.8075 357.839219) scale(0.1 -0.1)">
       <use xlink:href="#DejaVuSans-30"/>
      </g>
     </g>
    </g>
    <g id="ytick_2">
     <g id="line2d_10">
      <path d="M 57.17 314.438964 
L 637.2 314.438964 
" clip-path="url(#p67e0f24579)" style="fill: none; stroke: #b0b0b0; stroke-opacity: 0.2; stroke-width: 0.8; stroke-linecap: square"/>
     </g>
     <g id="line2d_11">
      <g>
       <use xlink:href="#m3a25293a27" x="57.17" y="314.438964" style="stroke: #000000; stroke-width: 0.8"/>
      </g>
     </g>
     <g id="text_10">
      <!-- 250 -->
      <g transform="translate(31.0825 318.238183) scale(0.1 -0.1)">
       <defs>
        <path id="DejaVuSans-35" d="M 691 4666 
L 3169 4666 
L 3169 4134 
L 1269 4134 
L 1269 2991 
Q 1406 3038 1543 3061 
Q 1681 3084 1819 3084 
Q 2600 3084 3056 2656 
Q 3513 2228 3513 1497 
Q 3513 744 3044 326 
Q 2575 -91 1722 -91 
Q 1428 -91 1123 -41 
Q 819 9 494 109 
L 494 744 
Q 775 591 1075 516 
Q 1375 441 1709 441 
Q 2250 441 2565 725 
Q 2881 1009 2881 1497 
Q 2881 1984 2565 2268 
Q 2250 2553 1709 2553 
Q 1456 2553 1204 2497 
Q 953 2441 691 2322 
L 691 4666 
z
" transform="scale(0.015625)"/>
       </defs>
       <use xlink:href="#DejaVuSans-32"/>
       <use xlink:href="#DejaVuSans-35" x="63.623047"/>
       <use xlink:href="#DejaVuSans-30" x="127.246094"/>
      </g>
     </g>
    </g>
    <g id="ytick_3">
     <g id="line2d_12">
      <path d="M 57.17 274.837928 
L 637.2 274.837928 
" clip-path="url(#p67e0f24579)" style="fill: none; stroke: #b0b0b0; stroke-opacity: 0.2; stroke-width: 0.8; stroke-linecap: square"/>
     </g>
     <g id="line2d_13">
      <g>
       <use xlink:href="#m3a25293a27" x="57.17" y="274.837928" style="stroke: #000000; stroke-width: 0.8"/>
      </g>
     </g>
     <g id="text_11">
      <!-- 500 -->
      <g transform="translate(31.0825 278.637146) scale(0.1 -0.1)">
       <use xlink:href="#DejaVuSans-35"/>
       <use xlink:href="#DejaVuSans-30" x="63.623047"/>
       <use xlink:href="#DejaVuSans-30" x="127.246094"/>
      </g>
     </g>
    </g>
    <g id="ytick_4">
     <g id="line2d_14">
      <path d="M 57.17 235.236892 
L 637.2 235.236892 
" clip-path="url(#p67e0f24579)" style="fill: none; stroke: #b0b0b0; stroke-opacity: 0.2; stroke-width: 0.8; stroke-linecap: square"/>
     </g>
     <g id="line2d_15">
      <g>
       <use xlink:href="#m3a25293a27" x="57.17" y="235.236892" style="stroke: #000000; stroke-width: 0.8"/>
      </g>
     </g>
     <g id="text_12">
      <!-- 750 -->
      <g transform="translate(31.0825 239.03611) scale(0.1 -0.1)">
       <defs>
        <path id="DejaVuSans-37" d="M 525 4666 
L 3525 4666 
L 3525 4397 
L 1831 0 
L 1172 0 
L 2766 4134 
L 525 4134 
L 525 4666 
z
" transform="scale(0.015625)"/>
       </defs>
       <use xlink:href="#DejaVuSans-37"/>
       <use xlink:href="#DejaVuSans-35" x="63.623047"/>
       <use xlink:href="#DejaVuSans-30" x="127.246094"/>
      </g>
     </g>
    </g>
    <g id="ytick_5">
     <g id="line2d_16">
      <path d="M 57.17 195.635855 
L 637.2 195.635855 
" clip-path="url(#p67e0f24579)" style="fill: none; stroke: #b0b0b0; stroke-opacity: 0.2; stroke-width: 0.8; stroke-linecap: square"/>
     </g>
     <g id="line2d_17">
      <g>
       <use xlink:href="#m3a25293a27" x="57.17" y="195.635855" style="stroke: #000000; stroke-width: 0.8"/>
      </g>
     </g>
     <g id="text_13">
      <!-- 1000 -->
      <g transform="translate(24.72 199.435074) scale(0.1 -0.1)">
       <use xlink:href="#DejaVuSans-31"/>
       <use xlink:href="#DejaVuSans-30" x="63.623047"/>
       <use xlink:href="#DejaVuSans-30" x="127.246094"/>
       <use xlink:href="#DejaVuSans-30" x="190.869141"/>
      </g>
     </g>
    </g>
    <g id="ytick_6">
     <g id="line2d_18">
      <path d="M 57.17 156.034819 
L 637.2 156.034819 
" clip-path="url(#p67e0f24579)" style="fill: none; stroke: #b0b0b0; stroke-opacity: 0.2; stroke-width: 0.8; stroke-linecap: square"/>
     </g>
     <g id="line2d_19">
      <g>
       <use xlink:href="#m3a25293a27" x="57.17" y="156.034819" style="stroke: #000000; stroke-width: 0.8"/>
      </g>
     </g>
     <g id="text_14">
      <!-- 1250 -->
      <g transform="translate(24.72 159.834038) scale(0.1 -0.1)">
       <use xlink:href="#DejaVuSans-31"/>
       <use xlink:href="#DejaVuSans-32" x="63.623047"/>
       <use xlink:href="#DejaVuSans-35" x="127.246094"/>
       <use xlink:href="#DejaVuSans-30" x="190.869141"/>
      </g>
     </g>
    </g>
    <g id="ytick_7">
     <g id="line2d_20">
      <path d="M 57.17 116.433783 
L 637.2 116.433783 
" clip-path="url(#p67e0f24579)" style="fill: none; stroke: #b0b0b0; stroke-opacity: 0.2; stroke-width: 0.8; stroke-linecap: square"/>
     </g>
     <g id="line2d_21">
      <g>
       <use xlink:href="#m3a25293a27" x="57.17" y="116.433783" style="stroke: #000000; stroke-width: 0.8"/>
      </g>
     </g>
     <g id="text_15">
      <!-- 1500 -->
      <g transform="translate(24.72 120.233002) scale(0.1 -0.1)">
       <use xlink:href="#DejaVuSans-31"/>
       <use xlink:href="#DejaVuSans-35" x="63.623047"/>
       <use xlink:href="#DejaVuSans-30" x="127.246094"/>
       <use xlink:href="#DejaVuSans-30" x="190.869141"/>
      </g>
     </g>
    </g>
    <g id="ytick_8">
     <g id="line2d_22">
      <path d="M 57.17 76.832747 
L 637.2 76.832747 
" clip-path="url(#p67e0f24579)" style="fill: none; stroke: #b0b0b0; stroke-opacity: 0.2; stroke-width: 0.8; stroke-linecap: square"/>
     </g>
     <g id="line2d_23">
      <g>
       <use xlink:href="#m3a25293a27" x="57.17" y="76.832747" style="stroke: #000000; stroke-width: 0.8"/>
      </g>
     </g>
     <g id="text_16">
      <!-- 1750 -->
      <g transform="translate(24.72 80.631966) scale(0.1 -0.1)">
       <use xlink:href="#DejaVuSans-31"/>
       <use xlink:href="#DejaVuSans-37" x="63.623047"/>
       <use xlink:href="#DejaVuSans-35" x="127.246094"/>
       <use xlink:href="#DejaVuSans-30" x="190.869141"/>
      </g>
     </g>
    </g>
    <g id="ytick_9">
     <g id="line2d_24">
      <path d="M 57.17 37.231711 
L 637.2 37.231711 
" clip-path="url(#p67e0f24579)" style="fill: none; stroke: #b0b0b0; stroke-opacity: 0.2; stroke-width: 0.8; stroke-linecap: square"/>
     </g>
     <g id="line2d_25">
      <g>
       <use xlink:href="#m3a25293a27" x="57.17" y="37.231711" style="stroke: #000000; stroke-width: 0.8"/>
      </g>
     </g>
     <g id="text_17">
      <!-- 2000 -->
      <g transform="translate(24.72 41.03093) scale(0.1 -0.1)">
       <use xlink:href="#DejaVuSans-32"/>
       <use xlink:href="#DejaVuSans-30" x="63.623047"/>
       <use xlink:href="#DejaVuSans-30" x="127.246094"/>
       <use xlink:href="#DejaVuSans-30" x="190.869141"/>
      </g>
     </g>
    </g>
    <g id="text_18">
     <!-- Simulations -->
     <g transform="translate(18.640312 219.6975) rotate(-90) scale(0.1 -0.1)">
      <defs>
       <path id="DejaVuSans-53" d="M 3425 4513 
L 3425 3897 
Q 3066 4069 2747 4153 
Q 2428 4238 2131 4238 
Q 1616 4238 1336 4038 
Q 1056 3838 1056 3469 
Q 1056 3159 1242 3001 
Q 1428 2844 1947 2747 
L 2328 2669 
Q 3034 2534 3370 2195 
Q 3706 1856 3706 1288 
Q 3706 609 3251 259 
Q 2797 -91 1919 -91 
Q 1588 -91 1214 -16 
Q 841 59 441 206 
L 441 856 
Q 825 641 1194 531 
Q 1563 422 1919 422 
Q 2459 422 2753 634 
Q 3047 847 3047 1241 
Q 3047 1584 2836 1778 
Q 2625 1972 2144 2069 
L 1759 2144 
Q 1053 2284 737 2584 
Q 422 2884 422 3419 
Q 422 4038 858 4394 
Q 1294 4750 2059 4750 
Q 2388 4750 2728 4690 
Q 3069 4631 3425 4513 
z
" transform="scale(0.015625)"/>
       <path id="DejaVuSans-6d" d="M 3328 2828 
Q 3544 3216 3844 3400 
Q 4144 3584 4550 3584 
Q 5097 3584 5394 3201 
Q 5691 2819 5691 2113 
L 5691 0 
L 5113 0 
L 5113 2094 
Q 5113 2597 4934 2840 
Q 4756 3084 4391 3084 
Q 3944 3084 3684 2787 
Q 3425 2491 3425 1978 
L 3425 0 
L 2847 0 
L 2847 2094 
Q 2847 2600 2669 2842 
Q 2491 3084 2119 3084 
Q 1678 3084 1418 2786 
Q 1159 2488 1159 1978 
L 1159 0 
L 581 0 
L 581 3500 
L 1159 3500 
L 1159 2956 
Q 1356 3278 1631 3431 
Q 1906 3584 2284 3584 
Q 2666 3584 2933 3390 
Q 3200 3197 3328 2828 
z
" transform="scale(0.015625)"/>
       <path id="DejaVuSans-75" d="M 544 1381 
L 544 3500 
L 1119 3500 
L 1119 1403 
Q 1119 906 1312 657 
Q 1506 409 1894 409 
Q 2359 409 2629 706 
Q 2900 1003 2900 1516 
L 2900 3500 
L 3475 3500 
L 3475 0 
L 2900 0 
L 2900 538 
Q 2691 219 2414 64 
Q 2138 -91 1772 -91 
Q 1169 -91 856 284 
Q 544 659 544 1381 
z
M 1991 3584 
L 1991 3584 
z
" transform="scale(0.015625)"/>
       <path id="DejaVuSans-6c" d="M 603 4863 
L 1178 4863 
L 1178 0 
L 603 0 
L 603 4863 
z
" transform="scale(0.015625)"/>
       <path id="DejaVuSans-61" d="M 2194 1759 
Q 1497 1759 1228 1600 
Q 959 1441 959 1056 
Q 959 750 1161 570 
Q 1363 391 1709 391 
Q 2188 391 2477 730 
Q 2766 1069 2766 1631 
L 2766 1759 
L 2194 1759 
z
M 3341 1997 
L 3341 0 
L 2766 0 
L 2766 531 
Q 2569 213 2275 61 
Q 1981 -91 1556 -91 
Q 1019 -91 701 211 
Q 384 513 384 1019 
Q 384 1609 779 1909 
Q 1175 2209 1959 2209 
L 2766 2209 
L 2766 2266 
Q 2766 2663 2505 2880 
Q 2244 3097 1772 3097 
Q 1472 3097 1187 3025 
Q 903 2953 641 2809 
L 641 3341 
Q 956 3463 1253 3523 
Q 1550 3584 1831 3584 
Q 2591 3584 2966 3190 
Q 3341 2797 3341 1997 
z
" transform="scale(0.015625)"/>
      </defs>
      <use xlink:href="#DejaVuSans-53"/>
      <use xlink:href="#DejaVuSans-69" x="63.476562"/>
      <use xlink:href="#DejaVuSans-6d" x="91.259766"/>
      <use xlink:href="#DejaVuSans-75" x="188.671875"/>
      <use xlink:href="#DejaVuSans-6c" x="252.050781"/>
      <use xlink:href="#DejaVuSans-61" x="279.833984"/>
      <use xlink:href="#DejaVuSans-74" x="341.113281"/>
      <use xlink:href="#DejaVuSans-69" x="380.322266"/>
      <use xlink:href="#DejaVuSans-6f" x="408.105469"/>
      <use xlink:href="#DejaVuSans-6e" x="469.287109"/>
      <use xlink:href="#DejaVuSans-73" x="532.666016"/>
     </g>
    </g>
   </g>
   <g id="line2d_26">
    <path d="M 93.382682 354.04 
L 93.382682 26.88 
" clip-path="url(#p67e0f24579)" style="fill: none; stroke: #dc2626; stroke-width: 2.5; stroke-linecap: square"/>
   </g>
   <g id="patch_32">
    <path d="M 57.17 354.04 
L 57.17 26.88 
" style="fill: none; stroke: #000000; stroke-width: 0.8; stroke-linejoin: miter; stroke-linecap: square"/>
   </g>
   <g id="patch_33">
    <path d="M 57.17 354.04 
L 637.2 354.04 
" style="fill: none; stroke: #000000; stroke-width: 0.8; stroke-linejoin: miter; stroke-linecap: square"/>
   </g>
   <g id="patch_34">
    <path d="M 212.791992 216.979104 
Q 153.789734 276.876294 95.572073 335.976987 
" style="fill: none; stroke: #dc2626; stroke-linecap: round"/>
    <path d="M 99.803949 334.530881 
L 95.572073 335.976987 
L 96.954314 331.723822 
" style="fill: none; stroke: #dc2626; stroke-linecap: round"/>
   </g>
   <g id="text_19">
    <!-- Observed conference coefficient -->
    <g style="fill: #991b1b" transform="translate(139.729192 211.47627) scale(0.1 -0.1)">
     <defs>
      <path id="DejaVuSans-4f" d="M 2522 4238 
Q 1834 4238 1429 3725 
Q 1025 3213 1025 2328 
Q 1025 1447 1429 934 
Q 1834 422 2522 422 
Q 3209 422 3611 934 
Q 4013 1447 4013 2328 
Q 4013 3213 3611 3725 
Q 3209 4238 2522 4238 
z
M 2522 4750 
Q 3503 4750 4090 4092 
Q 4678 3434 4678 2328 
Q 4678 1225 4090 567 
Q 3503 -91 2522 -91 
Q 1538 -91 948 565 
Q 359 1222 359 2328 
Q 359 3434 948 4092 
Q 1538 4750 2522 4750 
z
" transform="scale(0.015625)"/>
      <path id="DejaVuSans-62" d="M 3116 1747 
Q 3116 2381 2855 2742 
Q 2594 3103 2138 3103 
Q 1681 3103 1420 2742 
Q 1159 2381 1159 1747 
Q 1159 1113 1420 752 
Q 1681 391 2138 391 
Q 2594 391 2855 752 
Q 3116 1113 3116 1747 
z
M 1159 2969 
Q 1341 3281 1617 3432 
Q 1894 3584 2278 3584 
Q 2916 3584 3314 3078 
Q 3713 2572 3713 1747 
Q 3713 922 3314 415 
Q 2916 -91 2278 -91 
Q 1894 -91 1617 61 
Q 1341 213 1159 525 
L 1159 0 
L 581 0 
L 581 4863 
L 1159 4863 
L 1159 2969 
z
" transform="scale(0.015625)"/>
      <path id="DejaVuSans-76" d="M 191 3500 
L 800 3500 
L 1894 563 
L 2988 3500 
L 3597 3500 
L 2284 0 
L 1503 0 
L 191 3500 
z
" transform="scale(0.015625)"/>
      <path id="DejaVuSans-64" d="M 2906 2969 
L 2906 4863 
L 3481 4863 
L 3481 0 
L 2906 0 
L 2906 525 
Q 2725 213 2448 61 
Q 2172 -91 1784 -91 
Q 1150 -91 751 415 
Q 353 922 353 1747 
Q 353 2572 751 3078 
Q 1150 3584 1784 3584 
Q 2172 3584 2448 3432 
Q 2725 3281 2906 2969 
z
M 947 1747 
Q 947 1113 1208 752 
Q 1469 391 1925 391 
Q 2381 391 2643 752 
Q 2906 1113 2906 1747 
Q 2906 2381 2643 2742 
Q 2381 3103 1925 3103 
Q 1469 3103 1208 2742 
Q 947 2381 947 1747 
z
" transform="scale(0.015625)"/>
     </defs>
     <use xlink:href="#DejaVuSans-4f"/>
     <use xlink:href="#DejaVuSans-62" x="78.710938"/>
     <use xlink:href="#DejaVuSans-73" x="142.1875"/>
     <use xlink:href="#DejaVuSans-65" x="194.287109"/>
     <use xlink:href="#DejaVuSans-72" x="255.810547"/>
     <use xlink:href="#DejaVuSans-76" x="296.923828"/>
     <use xlink:href="#DejaVuSans-65" x="356.103516"/>
     <use xlink:href="#DejaVuSans-64" x="417.626953"/>
     <use xlink:href="#DejaVuSans-20" x="481.103516"/>
     <use xlink:href="#DejaVuSans-63" x="512.890625"/>
     <use xlink:href="#DejaVuSans-6f" x="567.871094"/>
     <use xlink:href="#DejaVuSans-6e" x="629.052734"/>
     <use xlink:href="#DejaVuSans-66" x="692.431641"/>
     <use xlink:href="#DejaVuSans-65" x="727.636719"/>
     <use xlink:href="#DejaVuSans-72" x="789.160156"/>
     <use xlink:href="#DejaVuSans-65" x="828.023438"/>
     <use xlink:href="#DejaVuSans-6e" x="889.546875"/>
     <use xlink:href="#DejaVuSans-63" x="952.925781"/>
     <use xlink:href="#DejaVuSans-65" x="1007.90625"/>
     <use xlink:href="#DejaVuSans-20" x="1069.429688"/>
     <use xlink:href="#DejaVuSans-63" x="1101.216797"/>
     <use xlink:href="#DejaVuSans-6f" x="1156.197266"/>
     <use xlink:href="#DejaVuSans-65" x="1217.378906"/>
     <use xlink:href="#DejaVuSans-66" x="1278.902344"/>
     <use xlink:href="#DejaVuSans-66" x="1314.107422"/>
     <use xlink:href="#DejaVuSans-69" x="1349.3125"/>
     <use xlink:href="#DejaVuSans-63" x="1377.095703"/>
     <use xlink:href="#DejaVuSans-69" x="1432.076172"/>
     <use xlink:href="#DejaVuSans-65" x="1459.859375"/>
     <use xlink:href="#DejaVuSans-6e" x="1521.382812"/>
     <use xlink:href="#DejaVuSans-74" x="1584.761719"/>
    </g>
   </g>
   <g id="text_20">
    <!-- Observed conference gap is outside 10,000 random assignments -->
    <g transform="translate(151.079688 20.88) scale(0.12 -0.12)">
     <defs>
      <path id="DejaVuSans-67" d="M 2906 1791 
Q 2906 2416 2648 2759 
Q 2391 3103 1925 3103 
Q 1463 3103 1205 2759 
Q 947 2416 947 1791 
Q 947 1169 1205 825 
Q 1463 481 1925 481 
Q 2391 481 2648 825 
Q 2906 1169 2906 1791 
z
M 3481 434 
Q 3481 -459 3084 -895 
Q 2688 -1331 1869 -1331 
Q 1566 -1331 1297 -1286 
Q 1028 -1241 775 -1147 
L 775 -588 
Q 1028 -725 1275 -790 
Q 1522 -856 1778 -856 
Q 2344 -856 2625 -561 
Q 2906 -266 2906 331 
L 2906 616 
Q 2728 306 2450 153 
Q 2172 0 1784 0 
Q 1141 0 747 490 
Q 353 981 353 1791 
Q 353 2603 747 3093 
Q 1141 3584 1784 3584 
Q 2172 3584 2450 3431 
Q 2728 3278 2906 2969 
L 2906 3500 
L 3481 3500 
L 3481 434 
z
" transform="scale(0.015625)"/>
      <path id="DejaVuSans-70" d="M 1159 525 
L 1159 -1331 
L 581 -1331 
L 581 3500 
L 1159 3500 
L 1159 2969 
Q 1341 3281 1617 3432 
Q 1894 3584 2278 3584 
Q 2916 3584 3314 3078 
Q 3713 2572 3713 1747 
Q 3713 922 3314 415 
Q 2916 -91 2278 -91 
Q 1894 -91 1617 61 
Q 1341 213 1159 525 
z
M 3116 1747 
Q 3116 2381 2855 2742 
Q 2594 3103 2138 3103 
Q 1681 3103 1420 2742 
Q 1159 2381 1159 1747 
Q 1159 1113 1420 752 
Q 1681 391 2138 391 
Q 2594 391 2855 752 
Q 3116 1113 3116 1747 
z
" transform="scale(0.015625)"/>
      <path id="DejaVuSans-2c" d="M 750 794 
L 1409 794 
L 1409 256 
L 897 -744 
L 494 -744 
L 750 256 
L 750 794 
z
" transform="scale(0.015625)"/>
     </defs>
     <use xlink:href="#DejaVuSans-4f"/>
     <use xlink:href="#DejaVuSans-62" x="78.710938"/>
     <use xlink:href="#DejaVuSans-73" x="142.1875"/>
     <use xlink:href="#DejaVuSans-65" x="194.287109"/>
     <use xlink:href="#DejaVuSans-72" x="255.810547"/>
     <use xlink:href="#DejaVuSans-76" x="296.923828"/>
     <use xlink:href="#DejaVuSans-65" x="356.103516"/>
     <use xlink:href="#DejaVuSans-64" x="417.626953"/>
     <use xlink:href="#DejaVuSans-20" x="481.103516"/>
     <use xlink:href="#DejaVuSans-63" x="512.890625"/>
     <use xlink:href="#DejaVuSans-6f" x="567.871094"/>
     <use xlink:href="#DejaVuSans-6e" x="629.052734"/>
     <use xlink:href="#DejaVuSans-66" x="692.431641"/>
     <use xlink:href="#DejaVuSans-65" x="727.636719"/>
     <use xlink:href="#DejaVuSans-72" x="789.160156"/>
     <use xlink:href="#DejaVuSans-65" x="828.023438"/>
     <use xlink:href="#DejaVuSans-6e" x="889.546875"/>
     <use xlink:href="#DejaVuSans-63" x="952.925781"/>
     <use xlink:href="#DejaVuSans-65" x="1007.90625"/>
     <use xlink:href="#DejaVuSans-20" x="1069.429688"/>
     <use xlink:href="#DejaVuSans-67" x="1101.216797"/>
     <use xlink:href="#DejaVuSans-61" x="1164.693359"/>
     <use xlink:href="#DejaVuSans-70" x="1225.972656"/>
     <use xlink:href="#DejaVuSans-20" x="1289.449219"/>
     <use xlink:href="#DejaVuSans-69" x="1321.236328"/>
     <use xlink:href="#DejaVuSans-73" x="1349.019531"/>
     <use xlink:href="#DejaVuSans-20" x="1401.119141"/>
     <use xlink:href="#DejaVuSans-6f" x="1432.90625"/>
     <use xlink:href="#DejaVuSans-75" x="1494.087891"/>
     <use xlink:href="#DejaVuSans-74" x="1557.466797"/>
     <use xlink:href="#DejaVuSans-73" x="1596.675781"/>
     <use xlink:href="#DejaVuSans-69" x="1648.775391"/>
     <use xlink:href="#DejaVuSans-64" x="1676.558594"/>
     <use xlink:href="#DejaVuSans-65" x="1740.035156"/>
     <use xlink:href="#DejaVuSans-20" x="1801.558594"/>
     <use xlink:href="#DejaVuSans-31" x="1833.345703"/>
     <use xlink:href="#DejaVuSans-30" x="1896.96875"/>
     <use xlink:href="#DejaVuSans-2c" x="1960.591797"/>
     <use xlink:href="#DejaVuSans-30" x="1992.378906"/>
     <use xlink:href="#DejaVuSans-30" x="2056.001953"/>
     <use xlink:href="#DejaVuSans-30" x="2119.625"/>
     <use xlink:href="#DejaVuSans-20" x="2183.248047"/>
     <use xlink:href="#DejaVuSans-72" x="2215.035156"/>
     <use xlink:href="#DejaVuSans-61" x="2256.148438"/>
     <use xlink:href="#DejaVuSans-6e" x="2317.427734"/>
     <use xlink:href="#DejaVuSans-64" x="2380.806641"/>
     <use xlink:href="#DejaVuSans-6f" x="2444.283203"/>
     <use xlink:href="#DejaVuSans-6d" x="2505.464844"/>
     <use xlink:href="#DejaVuSans-20" x="2602.876953"/>
     <use xlink:href="#DejaVuSans-61" x="2634.664062"/>
     <use xlink:href="#DejaVuSans-73" x="2695.943359"/>
     <use xlink:href="#DejaVuSans-73" x="2748.042969"/>
     <use xlink:href="#DejaVuSans-69" x="2800.142578"/>
     <use xlink:href="#DejaVuSans-67" x="2827.925781"/>
     <use xlink:href="#DejaVuSans-6e" x="2891.402344"/>
     <use xlink:href="#DejaVuSans-6d" x="2954.78125"/>
     <use xlink:href="#DejaVuSans-65" x="3052.193359"/>
     <use xlink:href="#DejaVuSans-6e" x="3113.716797"/>
     <use xlink:href="#DejaVuSans-74" x="3177.095703"/>
     <use xlink:href="#DejaVuSans-73" x="3216.304688"/>
    </g>
   </g>
  </g>
 </g>
 <defs>
  <clipPath id="p67e0f24579">
   <rect x="57.17" y="26.88" width="580.03" height="327.16"/>
  </clipPath>
 </defs>
</svg>
