<?xml version="1.0" encoding="utf-8" standalone="no"?>
<!DOCTYPE svg PUBLIC "-//W3C//DTD SVG 1.1//EN"
  "http://www.w3.org/Graphics/SVG/1.1/DTD/svg11.dtd">
<svg xmlns:xlink="http://www.w3.org/1999/xlink" width="792pt" height="360pt" viewBox="0 0 792 360" xmlns="http://www.w3.org/2000/svg" version="1.1">
 <metadata>
  <rdf:RDF xmlns:dc="http://purl.org/dc/elements/1.1/" xmlns:cc="http://creativecommons.org/ns#" xmlns:rdf="http://www.w3.org/1999/02/22-rdf-syntax-ns#">
   <cc:Work>
    <dc:type rdf:resource="http://purl.org/dc/dcmitype/StillImage"/>
    <dc:date>2026-07-11T13:22:14.632254</dc:date>
    <dc:format>image/svg+xml</dc:format>
    <dc:creator>
     <cc:Agent>
      <dc:title>Matplotlib v3.9.1, https://matplotlib.org/</dc:title>
     </cc:Agent>
    </dc:creator>
   </cc:Work>
  </rdf:RDF>
 </metadata>
 <defs>
  <style type="text/css">*{stroke-linejoin: round; stroke-linecap: butt}</style>
 </defs>
 <g id="figure_1">
  <g id="patch_1">
   <path d="M 0 360 
L 792 360 
L 792 0 
L 0 0 
z
" style="fill: #ffffff"/>
  </g>
  <g id="axes_1">
   <g id="patch_2">
    <path d="M 47.72 315.368441 
L 407.31 315.368441 
L 407.31 50.64 
L 47.72 50.64 
z
" style="fill: #ffffff"/>
   </g>
   <g id="patch_3">
    <path d="M 64.065 315.368441 
L 209.353889 315.368441 
L 209.353889 108.356957 
L 64.065 108.356957 
z
" clip-path="url(#pb93c2b0b25)" style="fill: #0f3b70"/>
   </g>
   <g id="patch_4">
    <path d="M 245.676111 315.368441 
L 390.965 315.368441 
L 390.965 163.620894 
L 245.676111 163.620894 
z
" clip-path="url(#pb93c2b0b25)" style="fill: #ef3b24"/>
   </g>
   <g id="matplotlib.axis_1">
    <g id="xtick_1">
     <g id="line2d_1">
      <defs>
       <path id="m52272a02ac" d="M 0 0 
L 0 3.5 
" style="stroke: #000000; stroke-width: 0.8"/>
      </defs>
      <g>
       <use xlink:href="#m52272a02ac" x="136.709444" y="315.368441" style="stroke: #000000; stroke-width: 0.8"/>
      </g>
     </g>
     <g id="text_1">
      <!-- East non-playoff -->
      <g transform="translate(97.428985 346.743363) rotate(-12) scale(0.1 -0.1)">
       <defs>
        <path id="DejaVuSans-45" d="M 628 4666 
L 3578 4666 
L 3578 4134 
L 1259 4134 
L 1259 2753 
L 3481 2753 
L 3481 2222 
L 1259 2222 
L 1259 531 
L 3634 531 
L 3634 0 
L 628 0 
L 628 4666 
z
" transform="scale(0.015625)"/>
        <path id="DejaVuSans-61" d="M 2194 1759 
Q 1497 1759 1228 1600 
Q 959 1441 959 1056 
Q 959 750 1161 570 
Q 1363 391 1709 391 
Q 2188 391 2477 730 
Q 2766 1069 2766 1631 
L 2766 1759 
L 2194 1759 
z
M 3341 1997 
L 3341 0 
L 2766 0 
L 2766 531 
Q 2569 213 2275 61 
Q 1981 -91 1556 -91 
Q 1019 -91 701 211 
Q 384 513 384 1019 
Q 384 1609 779 1909 
Q 1175 2209 1959 2209 
L 2766 2209 
L 2766 2266 
Q 2766 2663 2505 2880 
Q 2244 3097 1772 3097 
Q 1472 3097 1187 3025 
Q 903 2953 641 2809 
L 641 3341 
Q 956 3463 1253 3523 
Q 1550 3584 1831 3584 
Q 2591 3584 2966 3190 
Q 3341 2797 3341 1997 
z
" transform="scale(0.015625)"/>
        <path id="DejaVuSans-73" d="M 2834 3397 
L 2834 2853 
Q 2591 2978 2328 3040 
Q 2066 3103 1784 3103 
Q 1356 3103 1142 2972 
Q 928 2841 928 2578 
Q 928 2378 1081 2264 
Q 1234 2150 1697 2047 
L 1894 2003 
Q 2506 1872 2764 1633 
Q 3022 1394 3022 966 
Q 3022 478 2636 193 
Q 2250 -91 1575 -91 
Q 1294 -91 989 -36 
Q 684 19 347 128 
L 347 722 
Q 666 556 975 473 
Q 1284 391 1588 391 
Q 1994 391 2212 530 
Q 2431 669 2431 922 
Q 2431 1156 2273 1281 
Q 2116 1406 1581 1522 
L 1381 1569 
Q 847 1681 609 1914 
Q 372 2147 372 2553 
Q 372 3047 722 3315 
Q 1072 3584 1716 3584 
Q 2034 3584 2315 3537 
Q 2597 3491 2834 3397 
z
" transform="scale(0.015625)"/>
        <path id="DejaVuSans-74" d="M 1172 4494 
L 1172 3500 
L 2356 3500 
L 2356 3053 
L 1172 3053 
L 1172 1153 
Q 1172 725 1289 603 
Q 1406 481 1766 481 
L 2356 481 
L 2356 0 
L 1766 0 
Q 1100 0 847 248 
Q 594 497 594 1153 
L 594 3053 
L 172 3053 
L 172 3500 
L 594 3500 
L 594 4494 
L 1172 4494 
z
" transform="scale(0.015625)"/>
        <path id="DejaVuSans-20" transform="scale(0.015625)"/>
        <path id="DejaVuSans-6e" d="M 3513 2113 
L 3513 0 
L 2938 0 
L 2938 2094 
Q 2938 2591 2744 2837 
Q 2550 3084 2163 3084 
Q 1697 3084 1428 2787 
Q 1159 2491 1159 1978 
L 1159 0 
L 581 0 
L 581 3500 
L 1159 3500 
L 1159 2956 
Q 1366 3272 1645 3428 
Q 1925 3584 2291 3584 
Q 2894 3584 3203 3211 
Q 3513 2838 3513 2113 
z
" transform="scale(0.015625)"/>
        <path id="DejaVuSans-6f" d="M 1959 3097 
Q 1497 3097 1228 2736 
Q 959 2375 959 1747 
Q 959 1119 1226 758 
Q 1494 397 1959 397 
Q 2419 397 2687 759 
Q 2956 1122 2956 1747 
Q 2956 2369 2687 2733 
Q 2419 3097 1959 3097 
z
M 1959 3584 
Q 2709 3584 3137 3096 
Q 3566 2609 3566 1747 
Q 3566 888 3137 398 
Q 2709 -91 1959 -91 
Q 1206 -91 779 398 
Q 353 888 353 1747 
Q 353 2609 779 3096 
Q 1206 3584 1959 3584 
z
" transform="scale(0.015625)"/>
        <path id="DejaVuSans-2d" d="M 313 2009 
L 1997 2009 
L 1997 1497 
L 313 1497 
L 313 2009 
z
" transform="scale(0.015625)"/>
        <path id="DejaVuSans-70" d="M 1159 525 
L 1159 -1331 
L 581 -1331 
L 581 3500 
L 1159 3500 
L 1159 2969 
Q 1341 3281 1617 3432 
Q 1894 3584 2278 3584 
Q 2916 3584 3314 3078 
Q 3713 2572 3713 1747 
Q 3713 922 3314 415 
Q 2916 -91 2278 -91 
Q 1894 -91 1617 61 
Q 1341 213 1159 525 
z
M 3116 1747 
Q 3116 2381 2855 2742 
Q 2594 3103 2138 3103 
Q 1681 3103 1420 2742 
Q 1159 2381 1159 1747 
Q 1159 1113 1420 752 
Q 1681 391 2138 391 
Q 2594 391 2855 752 
Q 3116 1113 3116 1747 
z
" transform="scale(0.015625)"/>
        <path id="DejaVuSans-6c" d="M 603 4863 
L 1178 4863 
L 1178 0 
L 603 0 
L 603 4863 
z
" transform="scale(0.015625)"/>
        <path id="DejaVuSans-79" d="M 2059 -325 
Q 1816 -950 1584 -1140 
Q 1353 -1331 966 -1331 
L 506 -1331 
L 506 -850 
L 844 -850 
Q 1081 -850 1212 -737 
Q 1344 -625 1503 -206 
L 1606 56 
L 191 3500 
L 800 3500 
L 1894 763 
L 2988 3500 
L 3597 3500 
L 2059 -325 
z
" transform="scale(0.015625)"/>
        <path id="DejaVuSans-66" d="M 2375 4863 
L 2375 4384 
L 1825 4384 
Q 1516 4384 1395 4259 
Q 1275 4134 1275 3809 
L 1275 3500 
L 2222 3500 
L 2222 3053 
L 1275 3053 
L 1275 0 
L 697 0 
L 697 3053 
L 147 3053 
L 147 3500 
L 697 3500 
L 697 3744 
Q 697 4328 969 4595 
Q 1241 4863 1831 4863 
L 2375 4863 
z
" transform="scale(0.015625)"/>
       </defs>
       <use xlink:href="#DejaVuSans-45"/>
       <use xlink:href="#DejaVuSans-61" x="63.183594"/>
       <use xlink:href="#DejaVuSans-73" x="124.462891"/>
       <use xlink:href="#DejaVuSans-74" x="176.5625"/>
       <use xlink:href="#DejaVuSans-20" x="215.771484"/>
       <use xlink:href="#DejaVuSans-6e" x="247.558594"/>
       <use xlink:href="#DejaVuSans-6f" x="310.9375"/>
       <use xlink:href="#DejaVuSans-6e" x="372.119141"/>
       <use xlink:href="#DejaVuSans-2d" x="435.498047"/>
       <use xlink:href="#DejaVuSans-70" x="471.582031"/>
       <use xlink:href="#DejaVuSans-6c" x="535.058594"/>
       <use xlink:href="#DejaVuSans-61" x="562.841797"/>
       <use xlink:href="#DejaVuSans-79" x="624.121094"/>
       <use xlink:href="#DejaVuSans-6f" x="683.300781"/>
       <use xlink:href="#DejaVuSans-66" x="744.482422"/>
       <use xlink:href="#DejaVuSans-66" x="779.6875"/>
      </g>
     </g>
    </g>
    <g id="xtick_2">
     <g id="line2d_2">
      <g>
       <use xlink:href="#m52272a02ac" x="318.320556" y="315.368441" style="stroke: #000000; stroke-width: 0.8"/>
      </g>
     </g>
     <g id="text_2">
      <!-- East playoff -->
      <g transform="translate(289.996114 342.085816) rotate(-12) scale(0.1 -0.1)">
       <use xlink:href="#DejaVuSans-45"/>
       <use xlink:href="#DejaVuSans-61" x="63.183594"/>
       <use xlink:href="#DejaVuSans-73" x="124.462891"/>
       <use xlink:href="#DejaVuSans-74" x="176.5625"/>
       <use xlink:href="#DejaVuSans-20" x="215.771484"/>
       <use xlink:href="#DejaVuSans-70" x="247.558594"/>
       <use xlink:href="#DejaVuSans-6c" x="311.035156"/>
       <use xlink:href="#DejaVuSans-61" x="338.818359"/>
       <use xlink:href="#DejaVuSans-79" x="400.097656"/>
       <use xlink:href="#DejaVuSans-6f" x="459.277344"/>
       <use xlink:href="#DejaVuSans-66" x="520.458984"/>
       <use xlink:href="#DejaVuSans-66" x="555.664062"/>
      </g>
     </g>
    </g>
   </g>
   <g id="matplotlib.axis_2">
    <g id="ytick_1">
     <g id="line2d_3">
      <defs>
       <path id="ma3e8ccc364" d="M 0 0 
L -3.5 0 
" style="stroke: #000000; stroke-width: 0.8"/>
      </defs>
      <g>
       <use xlink:href="#ma3e8ccc364" x="47.72" y="315.368441" style="stroke: #000000; stroke-width: 0.8"/>
      </g>
     </g>
     <g id="text_3">
      <!-- 0.0 -->
      <g transform="translate(24.816875 319.16766) scale(0.1 -0.1)">
       <defs>
        <path id="DejaVuSans-30" d="M 2034 4250 
Q 1547 4250 1301 3770 
Q 1056 3291 1056 2328 
Q 1056 1369 1301 889 
Q 1547 409 2034 409 
Q 2525 409 2770 889 
Q 3016 1369 3016 2328 
Q 3016 3291 2770 3770 
Q 2525 4250 2034 4250 
z
M 2034 4750 
Q 2819 4750 3233 4129 
Q 3647 3509 3647 2328 
Q 3647 1150 3233 529 
Q 2819 -91 2034 -91 
Q 1250 -91 836 529 
Q 422 1150 422 2328 
Q 422 3509 836 4129 
Q 1250 4750 2034 4750 
z
" transform="scale(0.015625)"/>
        <path id="DejaVuSans-2e" d="M 684 794 
L 1344 794 
L 1344 0 
L 684 0 
L 684 794 
z
" transform="scale(0.015625)"/>
       </defs>
       <use xlink:href="#DejaVuSans-30"/>
       <use xlink:href="#DejaVuSans-2e" x="63.623047"/>
       <use xlink:href="#DejaVuSans-30" x="95.410156"/>
      </g>
     </g>
    </g>
    <g id="ytick_2">
     <g id="line2d_4">
      <g>
       <use xlink:href="#ma3e8ccc364" x="47.72" y="262.422753" style="stroke: #000000; stroke-width: 0.8"/>
      </g>
     </g>
     <g id="text_4">
      <!-- 0.2 -->
      <g transform="translate(24.816875 266.221971) scale(0.1 -0.1)">
       <defs>
        <path id="DejaVuSans-32" d="M 1228 531 
L 3431 531 
L 3431 0 
L 469 0 
L 469 531 
Q 828 903 1448 1529 
Q 2069 2156 2228 2338 
Q 2531 2678 2651 2914 
Q 2772 3150 2772 3378 
Q 2772 3750 2511 3984 
Q 2250 4219 1831 4219 
Q 1534 4219 1204 4116 
Q 875 4013 500 3803 
L 500 4441 
Q 881 4594 1212 4672 
Q 1544 4750 1819 4750 
Q 2544 4750 2975 4387 
Q 3406 4025 3406 3419 
Q 3406 3131 3298 2873 
Q 3191 2616 2906 2266 
Q 2828 2175 2409 1742 
Q 1991 1309 1228 531 
z
" transform="scale(0.015625)"/>
       </defs>
       <use xlink:href="#DejaVuSans-30"/>
       <use xlink:href="#DejaVuSans-2e" x="63.623047"/>
       <use xlink:href="#DejaVuSans-32" x="95.410156"/>
      </g>
     </g>
    </g>
    <g id="ytick_3">
     <g id="line2d_5">
      <g>
       <use xlink:href="#ma3e8ccc364" x="47.72" y="209.477065" style="stroke: #000000; stroke-width: 0.8"/>
      </g>
     </g>
     <g id="text_5">
      <!-- 0.4 -->
      <g transform="translate(24.816875 213.276283) scale(0.1 -0.1)">
       <defs>
        <path id="DejaVuSans-34" d="M 2419 4116 
L 825 1625 
L 2419 1625 
L 2419 4116 
z
M 2253 4666 
L 3047 4666 
L 3047 1625 
L 3713 1625 
L 3713 1100 
L 3047 1100 
L 3047 0 
L 2419 0 
L 2419 1100 
L 313 1100 
L 313 1709 
L 2253 4666 
z
" transform="scale(0.015625)"/>
       </defs>
       <use xlink:href="#DejaVuSans-30"/>
       <use xlink:href="#DejaVuSans-2e" x="63.623047"/>
       <use xlink:href="#DejaVuSans-34" x="95.410156"/>
      </g>
     </g>
    </g>
    <g id="ytick_4">
     <g id="line2d_6">
      <g>
       <use xlink:href="#ma3e8ccc364" x="47.72" y="156.531376" style="stroke: #000000; stroke-width: 0.8"/>
      </g>
     </g>
     <g id="text_6">
      <!-- 0.6 -->
      <g transform="translate(24.816875 160.330595) scale(0.1 -0.1)">
       <defs>
        <path id="DejaVuSans-36" d="M 2113 2584 
Q 1688 2584 1439 2293 
Q 1191 2003 1191 1497 
Q 1191 994 1439 701 
Q 1688 409 2113 409 
Q 2538 409 2786 701 
Q 3034 994 3034 1497 
Q 3034 2003 2786 2293 
Q 2538 2584 2113 2584 
z
M 3366 4563 
L 3366 3988 
Q 3128 4100 2886 4159 
Q 2644 4219 2406 4219 
Q 1781 4219 1451 3797 
Q 1122 3375 1075 2522 
Q 1259 2794 1537 2939 
Q 1816 3084 2150 3084 
Q 2853 3084 3261 2657 
Q 3669 2231 3669 1497 
Q 3669 778 3244 343 
Q 2819 -91 2113 -91 
Q 1303 -91 875 529 
Q 447 1150 447 2328 
Q 447 3434 972 4092 
Q 1497 4750 2381 4750 
Q 2619 4750 2861 4703 
Q 3103 4656 3366 4563 
z
" transform="scale(0.015625)"/>
       </defs>
       <use xlink:href="#DejaVuSans-30"/>
       <use xlink:href="#DejaVuSans-2e" x="63.623047"/>
       <use xlink:href="#DejaVuSans-36" x="95.410156"/>
      </g>
     </g>
    </g>
    <g id="ytick_5">
     <g id="line2d_7">
      <g>
       <use xlink:href="#ma3e8ccc364" x="47.72" y="103.585688" style="stroke: #000000; stroke-width: 0.8"/>
      </g>
     </g>
     <g id="text_7">
      <!-- 0.8 -->
      <g transform="translate(24.816875 107.384907) scale(0.1 -0.1)">
       <defs>
        <path id="DejaVuSans-38" d="M 2034 2216 
Q 1584 2216 1326 1975 
Q 1069 1734 1069 1313 
Q 1069 891 1326 650 
Q 1584 409 2034 409 
Q 2484 409 2743 651 
Q 3003 894 3003 1313 
Q 3003 1734 2745 1975 
Q 2488 2216 2034 2216 
z
M 1403 2484 
Q 997 2584 770 2862 
Q 544 3141 544 3541 
Q 544 4100 942 4425 
Q 1341 4750 2034 4750 
Q 2731 4750 3128 4425 
Q 3525 4100 3525 3541 
Q 3525 3141 3298 2862 
Q 3072 2584 2669 2484 
Q 3125 2378 3379 2068 
Q 3634 1759 3634 1313 
Q 3634 634 3220 271 
Q 2806 -91 2034 -91 
Q 1263 -91 848 271 
Q 434 634 434 1313 
Q 434 1759 690 2068 
Q 947 2378 1403 2484 
z
M 1172 3481 
Q 1172 3119 1398 2916 
Q 1625 2713 2034 2713 
Q 2441 2713 2670 2916 
Q 2900 3119 2900 3481 
Q 2900 3844 2670 4047 
Q 2441 4250 2034 4250 
Q 1625 4250 1398 4047 
Q 1172 3844 1172 3481 
z
" transform="scale(0.015625)"/>
       </defs>
       <use xlink:href="#DejaVuSans-30"/>
       <use xlink:href="#DejaVuSans-2e" x="63.623047"/>
       <use xlink:href="#DejaVuSans-38" x="95.410156"/>
      </g>
     </g>
    </g>
    <g id="ytick_6">
     <g id="line2d_8">
      <g>
       <use xlink:href="#ma3e8ccc364" x="47.72" y="50.64" style="stroke: #000000; stroke-width: 0.8"/>
      </g>
     </g>
     <g id="text_8">
      <!-- 1.0 -->
      <g transform="translate(24.816875 54.439219) scale(0.1 -0.1)">
       <defs>
        <path id="DejaVuSans-31" d="M 794 531 
L 1825 531 
L 1825 4091 
L 703 3866 
L 703 4441 
L 1819 4666 
L 2450 4666 
L 2450 531 
L 3481 531 
L 3481 0 
L 794 0 
L 794 531 
z
" transform="scale(0.015625)"/>
       </defs>
       <use xlink:href="#DejaVuSans-31"/>
       <use xlink:href="#DejaVuSans-2e" x="63.623047"/>
       <use xlink:href="#DejaVuSans-30" x="95.410156"/>
      </g>
     </g>
    </g>
    <g id="text_9">
     <!-- Western Conference win rate -->
     <g transform="translate(18.737188 255.649533) rotate(-90) scale(0.1 -0.1)">
      <defs>
       <path id="DejaVuSans-57" d="M 213 4666 
L 850 4666 
L 1831 722 
L 2809 4666 
L 3519 4666 
L 4500 722 
L 5478 4666 
L 6119 4666 
L 4947 0 
L 4153 0 
L 3169 4050 
L 2175 0 
L 1381 0 
L 213 4666 
z
" transform="scale(0.015625)"/>
       <path id="DejaVuSans-65" d="M 3597 1894 
L 3597 1613 
L 953 1613 
Q 991 1019 1311 708 
Q 1631 397 2203 397 
Q 2534 397 2845 478 
Q 3156 559 3463 722 
L 3463 178 
Q 3153 47 2828 -22 
Q 2503 -91 2169 -91 
Q 1331 -91 842 396 
Q 353 884 353 1716 
Q 353 2575 817 3079 
Q 1281 3584 2069 3584 
Q 2775 3584 3186 3129 
Q 3597 2675 3597 1894 
z
M 3022 2063 
Q 3016 2534 2758 2815 
Q 2500 3097 2075 3097 
Q 1594 3097 1305 2825 
Q 1016 2553 972 2059 
L 3022 2063 
z
" transform="scale(0.015625)"/>
       <path id="DejaVuSans-72" d="M 2631 2963 
Q 2534 3019 2420 3045 
Q 2306 3072 2169 3072 
Q 1681 3072 1420 2755 
Q 1159 2438 1159 1844 
L 1159 0 
L 581 0 
L 581 3500 
L 1159 3500 
L 1159 2956 
Q 1341 3275 1631 3429 
Q 1922 3584 2338 3584 
Q 2397 3584 2469 3576 
Q 2541 3569 2628 3553 
L 2631 2963 
z
" transform="scale(0.015625)"/>
       <path id="DejaVuSans-43" d="M 4122 4306 
L 4122 3641 
Q 3803 3938 3442 4084 
Q 3081 4231 2675 4231 
Q 1875 4231 1450 3742 
Q 1025 3253 1025 2328 
Q 1025 1406 1450 917 
Q 1875 428 2675 428 
Q 3081 428 3442 575 
Q 3803 722 4122 1019 
L 4122 359 
Q 3791 134 3420 21 
Q 3050 -91 2638 -91 
Q 1578 -91 968 557 
Q 359 1206 359 2328 
Q 359 3453 968 4101 
Q 1578 4750 2638 4750 
Q 3056 4750 3426 4639 
Q 3797 4528 4122 4306 
z
" transform="scale(0.015625)"/>
       <path id="DejaVuSans-63" d="M 3122 3366 
L 3122 2828 
Q 2878 2963 2633 3030 
Q 2388 3097 2138 3097 
Q 1578 3097 1268 2742 
Q 959 2388 959 1747 
Q 959 1106 1268 751 
Q 1578 397 2138 397 
Q 2388 397 2633 464 
Q 2878 531 3122 666 
L 3122 134 
Q 2881 22 2623 -34 
Q 2366 -91 2075 -91 
Q 1284 -91 818 406 
Q 353 903 353 1747 
Q 353 2603 823 3093 
Q 1294 3584 2113 3584 
Q 2378 3584 2631 3529 
Q 2884 3475 3122 3366 
z
" transform="scale(0.015625)"/>
       <path id="DejaVuSans-77" d="M 269 3500 
L 844 3500 
L 1563 769 
L 2278 3500 
L 2956 3500 
L 3675 769 
L 4391 3500 
L 4966 3500 
L 4050 0 
L 3372 0 
L 2619 2869 
L 1863 0 
L 1184 0 
L 269 3500 
z
" transform="scale(0.015625)"/>
       <path id="DejaVuSans-69" d="M 603 3500 
L 1178 3500 
L 1178 0 
L 603 0 
L 603 3500 
z
M 603 4863 
L 1178 4863 
L 1178 4134 
L 603 4134 
L 603 4863 
z
" transform="scale(0.015625)"/>
      </defs>
      <use xlink:href="#DejaVuSans-57"/>
      <use xlink:href="#DejaVuSans-65" x="93.001953"/>
      <use xlink:href="#DejaVuSans-73" x="154.525391"/>
      <use xlink:href="#DejaVuSans-74" x="206.625"/>
      <use xlink:href="#DejaVuSans-65" x="245.833984"/>
      <use xlink:href="#DejaVuSans-72" x="307.357422"/>
      <use xlink:href="#DejaVuSans-6e" x="346.720703"/>
      <use xlink:href="#DejaVuSans-20" x="410.099609"/>
      <use xlink:href="#DejaVuSans-43" x="441.886719"/>
      <use xlink:href="#DejaVuSans-6f" x="511.710938"/>
      <use xlink:href="#DejaVuSans-6e" x="572.892578"/>
      <use xlink:href="#DejaVuSans-66" x="636.271484"/>
      <use xlink:href="#DejaVuSans-65" x="671.476562"/>
      <use xlink:href="#DejaVuSans-72" x="733"/>
      <use xlink:href="#DejaVuSans-65" x="771.863281"/>
      <use xlink:href="#DejaVuSans-6e" x="833.386719"/>
      <use xlink:href="#DejaVuSans-63" x="896.765625"/>
      <use xlink:href="#DejaVuSans-65" x="951.746094"/>
      <use xlink:href="#DejaVuSans-20" x="1013.269531"/>
      <use xlink:href="#DejaVuSans-77" x="1045.056641"/>
      <use xlink:href="#DejaVuSans-69" x="1126.84375"/>
      <use xlink:href="#DejaVuSans-6e" x="1154.626953"/>
      <use xlink:href="#DejaVuSans-20" x="1218.005859"/>
      <use xlink:href="#DejaVuSans-72" x="1249.792969"/>
      <use xlink:href="#DejaVuSans-61" x="1290.90625"/>
      <use xlink:href="#DejaVuSans-74" x="1352.185547"/>
      <use xlink:href="#DejaVuSans-65" x="1391.394531"/>
     </g>
    </g>
   </g>
   <g id="patch_5">
    <path d="M 47.72 315.368441 
L 47.72 50.64 
" style="fill: none; stroke: #000000; stroke-width: 0.8; stroke-linejoin: miter; stroke-linecap: square"/>
   </g>
   <g id="patch_6">
    <path d="M 47.72 315.368441 
L 407.31 315.368441 
" style="fill: none; stroke: #000000; stroke-width: 0.8; stroke-linejoin: miter; stroke-linecap: square"/>
   </g>
   <g id="text_10">
    <!-- West playoff teams -->
    <g transform="translate(169.660937 44.64) scale(0.12 -0.12)">
     <defs>
      <path id="DejaVuSans-6d" d="M 3328 2828 
Q 3544 3216 3844 3400 
Q 4144 3584 4550 3584 
Q 5097 3584 5394 3201 
Q 5691 2819 5691 2113 
L 5691 0 
L 5113 0 
L 5113 2094 
Q 5113 2597 4934 2840 
Q 4756 3084 4391 3084 
Q 3944 3084 3684 2787 
Q 3425 2491 3425 1978 
L 3425 0 
L 2847 0 
L 2847 2094 
Q 2847 2600 2669 2842 
Q 2491 3084 2119 3084 
Q 1678 3084 1418 2786 
Q 1159 2488 1159 1978 
L 1159 0 
L 581 0 
L 581 3500 
L 1159 3500 
L 1159 2956 
Q 1356 3278 1631 3431 
Q 1906 3584 2284 3584 
Q 2666 3584 2933 3390 
Q 3200 3197 3328 2828 
z
" transform="scale(0.015625)"/>
     </defs>
     <use xlink:href="#DejaVuSans-57"/>
     <use xlink:href="#DejaVuSans-65" x="93.001953"/>
     <use xlink:href="#DejaVuSans-73" x="154.525391"/>
     <use xlink:href="#DejaVuSans-74" x="206.625"/>
     <use xlink:href="#DejaVuSans-20" x="245.833984"/>
     <use xlink:href="#DejaVuSans-70" x="277.621094"/>
     <use xlink:href="#DejaVuSans-6c" x="341.097656"/>
     <use xlink:href="#DejaVuSans-61" x="368.880859"/>
     <use xlink:href="#DejaVuSans-79" x="430.160156"/>
     <use xlink:href="#DejaVuSans-6f" x="489.339844"/>
     <use xlink:href="#DejaVuSans-66" x="550.521484"/>
     <use xlink:href="#DejaVuSans-66" x="585.726562"/>
     <use xlink:href="#DejaVuSans-20" x="620.931641"/>
     <use xlink:href="#DejaVuSans-74" x="652.71875"/>
     <use xlink:href="#DejaVuSans-65" x="691.927734"/>
     <use xlink:href="#DejaVuSans-61" x="753.451172"/>
     <use xlink:href="#DejaVuSans-6d" x="814.730469"/>
     <use xlink:href="#DejaVuSans-73" x="912.142578"/>
    </g>
   </g>
  </g>
  <g id="axes_2">
   <g id="patch_7">
    <path d="M 421.61 315.368441 
L 781.2 315.368441 
L 781.2 50.64 
L 421.61 50.64 
z
" style="fill: #ffffff"/>
   </g>
   <g id="patch_8">
    <path d="M 437.955 315.368441 
L 583.243889 315.368441 
L 583.243889 168.725354 
L 437.955 168.725354 
z
" clip-path="url(#p69a6230c81)" style="fill: #0f3b70"/>
   </g>
   <g id="patch_9">
    <path d="M 619.566111 315.368441 
L 764.855 315.368441 
L 764.855 230.942358 
L 619.566111 230.942358 
z
" clip-path="url(#p69a6230c81)" style="fill: #ef3b24"/>
   </g>
   <g id="matplotlib.axis_3">
    <g id="xtick_3">
     <g id="line2d_9">
      <g>
       <use xlink:href="#m52272a02ac" x="510.599444" y="315.368441" style="stroke: #000000; stroke-width: 0.8"/>
      </g>
     </g>
     <g id="text_11">
      <!-- East non-playoff -->
      <g transform="translate(471.318985 346.743363) rotate(-12) scale(0.1 -0.1)">
       <use xlink:href="#DejaVuSans-45"/>
       <use xlink:href="#DejaVuSans-61" x="63.183594"/>
       <use xlink:href="#DejaVuSans-73" x="124.462891"/>
       <use xlink:href="#DejaVuSans-74" x="176.5625"/>
       <use xlink:href="#DejaVuSans-20" x="215.771484"/>
       <use xlink:href="#DejaVuSans-6e" x="247.558594"/>
       <use xlink:href="#DejaVuSans-6f" x="310.9375"/>
       <use xlink:href="#DejaVuSans-6e" x="372.119141"/>
       <use xlink:href="#DejaVuSans-2d" x="435.498047"/>
       <use xlink:href="#DejaVuSans-70" x="471.582031"/>
       <use xlink:href="#DejaVuSans-6c" x="535.058594"/>
       <use xlink:href="#DejaVuSans-61" x="562.841797"/>
       <use xlink:href="#DejaVuSans-79" x="624.121094"/>
       <use xlink:href="#DejaVuSans-6f" x="683.300781"/>
       <use xlink:href="#DejaVuSans-66" x="744.482422"/>
       <use xlink:href="#DejaVuSans-66" x="779.6875"/>
      </g>
     </g>
    </g>
    <g id="xtick_4">
     <g id="line2d_10">
      <g>
       <use xlink:href="#m52272a02ac" x="692.210556" y="315.368441" style="stroke: #000000; stroke-width: 0.8"/>
      </g>
     </g>
     <g id="text_12">
      <!-- East playoff -->
      <g transform="translate(663.886114 342.085816) rotate(-12) scale(0.1 -0.1)">
       <use xlink:href="#DejaVuSans-45"/>
       <use xlink:href="#DejaVuSans-61" x="63.183594"/>
       <use xlink:href="#DejaVuSans-73" x="124.462891"/>
       <use xlink:href="#DejaVuSans-74" x="176.5625"/>
       <use xlink:href="#DejaVuSans-20" x="215.771484"/>
       <use xlink:href="#DejaVuSans-70" x="247.558594"/>
       <use xlink:href="#DejaVuSans-6c" x="311.035156"/>
       <use xlink:href="#DejaVuSans-61" x="338.818359"/>
       <use xlink:href="#DejaVuSans-79" x="400.097656"/>
       <use xlink:href="#DejaVuSans-6f" x="459.277344"/>
       <use xlink:href="#DejaVuSans-66" x="520.458984"/>
       <use xlink:href="#DejaVuSans-66" x="555.664062"/>
      </g>
     </g>
    </g>
   </g>
   <g id="matplotlib.axis_4">
    <g id="ytick_7">
     <g id="line2d_11">
      <g>
       <use xlink:href="#ma3e8ccc364" x="421.61" y="315.368441" style="stroke: #000000; stroke-width: 0.8"/>
      </g>
     </g>
    </g>
    <g id="ytick_8">
     <g id="line2d_12">
      <g>
       <use xlink:href="#ma3e8ccc364" x="421.61" y="262.422753" style="stroke: #000000; stroke-width: 0.8"/>
      </g>
     </g>
    </g>
    <g id="ytick_9">
     <g id="line2d_13">
      <g>
       <use xlink:href="#ma3e8ccc364" x="421.61" y="209.477065" style="stroke: #000000; stroke-width: 0.8"/>
      </g>
     </g>
    </g>
    <g id="ytick_10">
     <g id="line2d_14">
      <g>
       <use xlink:href="#ma3e8ccc364" x="421.61" y="156.531376" style="stroke: #000000; stroke-width: 0.8"/>
      </g>
     </g>
    </g>
    <g id="ytick_11">
     <g id="line2d_15">
      <g>
       <use xlink:href="#ma3e8ccc364" x="421.61" y="103.585688" style="stroke: #000000; stroke-width: 0.8"/>
      </g>
     </g>
    </g>
    <g id="ytick_12">
     <g id="line2d_16">
      <g>
       <use xlink:href="#ma3e8ccc364" x="421.61" y="50.64" style="stroke: #000000; stroke-width: 0.8"/>
      </g>
     </g>
    </g>
   </g>
   <g id="patch_10">
    <path d="M 421.61 315.368441 
L 421.61 50.64 
" style="fill: none; stroke: #000000; stroke-width: 0.8; stroke-linejoin: miter; stroke-linecap: square"/>
   </g>
   <g id="patch_11">
    <path d="M 421.61 315.368441 
L 781.2 315.368441 
" style="fill: none; stroke: #000000; stroke-width: 0.8; stroke-linejoin: miter; stroke-linecap: square"/>
   </g>
   <g id="text_13">
    <!-- West non-playoff teams -->
    <g transform="translate(530.11 44.64) scale(0.12 -0.12)">
     <use xlink:href="#DejaVuSans-57"/>
     <use xlink:href="#DejaVuSans-65" x="93.001953"/>
     <use xlink:href="#DejaVuSans-73" x="154.525391"/>
     <use xlink:href="#DejaVuSans-74" x="206.625"/>
     <use xlink:href="#DejaVuSans-20" x="245.833984"/>
     <use xlink:href="#DejaVuSans-6e" x="277.621094"/>
     <use xlink:href="#DejaVuSans-6f" x="341"/>
     <use xlink:href="#DejaVuSans-6e" x="402.181641"/>
     <use xlink:href="#DejaVuSans-2d" x="465.560547"/>
     <use xlink:href="#DejaVuSans-70" x="501.644531"/>
     <use xlink:href="#DejaVuSans-6c" x="565.121094"/>
     <use xlink:href="#DejaVuSans-61" x="592.904297"/>
     <use xlink:href="#DejaVuSans-79" x="654.183594"/>
     <use xlink:href="#DejaVuSans-6f" x="713.363281"/>
     <use xlink:href="#DejaVuSans-66" x="774.544922"/>
     <use xlink:href="#DejaVuSans-66" x="809.75"/>
     <use xlink:href="#DejaVuSans-20" x="844.955078"/>
     <use xlink:href="#DejaVuSans-74" x="876.742188"/>
     <use xlink:href="#DejaVuSans-65" x="915.951172"/>
     <use xlink:href="#DejaVuSans-61" x="977.474609"/>
     <use xlink:href="#DejaVuSans-6d" x="1038.753906"/>
     <use xlink:href="#DejaVuSans-73" x="1136.166016"/>
    </g>
   </g>
  </g>
  <g id="text_14">
   <!-- Western teams won across playoff-status matchups -->
   <g transform="translate(240.976875 16.318125) scale(0.12 -0.12)">
    <defs>
     <path id="DejaVuSans-75" d="M 544 1381 
L 544 3500 
L 1119 3500 
L 1119 1403 
Q 1119 906 1312 657 
Q 1506 409 1894 409 
Q 2359 409 2629 706 
Q 2900 1003 2900 1516 
L 2900 3500 
L 3475 3500 
L 3475 0 
L 2900 0 
L 2900 538 
Q 2691 219 2414 64 
Q 2138 -91 1772 -91 
Q 1169 -91 856 284 
Q 544 659 544 1381 
z
M 1991 3584 
L 1991 3584 
z
" transform="scale(0.015625)"/>
     <path id="DejaVuSans-68" d="M 3513 2113 
L 3513 0 
L 2938 0 
L 2938 2094 
Q 2938 2591 2744 2837 
Q 2550 3084 2163 3084 
Q 1697 3084 1428 2787 
Q 1159 2491 1159 1978 
L 1159 0 
L 581 0 
L 581 4863 
L 1159 4863 
L 1159 2956 
Q 1366 3272 1645 3428 
Q 1925 3584 2291 3584 
Q 2894 3584 3203 3211 
Q 3513 2838 3513 2113 
z
" transform="scale(0.015625)"/>
    </defs>
    <use xlink:href="#DejaVuSans-57"/>
    <use xlink:href="#DejaVuSans-65" x="93.001953"/>
    <use xlink:href="#DejaVuSans-73" x="154.525391"/>
    <use xlink:href="#DejaVuSans-74" x="206.625"/>
    <use xlink:href="#DejaVuSans-65" x="245.833984"/>
    <use xlink:href="#DejaVuSans-72" x="307.357422"/>
    <use xlink:href="#DejaVuSans-6e" x="346.720703"/>
    <use xlink:href="#DejaVuSans-20" x="410.099609"/>
    <use xlink:href="#DejaVuSans-74" x="441.886719"/>
    <use xlink:href="#DejaVuSans-65" x="481.095703"/>
    <use xlink:href="#DejaVuSans-61" x="542.619141"/>
    <use xlink:href="#DejaVuSans-6d" x="603.898438"/>
    <use xlink:href="#DejaVuSans-73" x="701.310547"/>
    <use xlink:href="#DejaVuSans-20" x="753.410156"/>
    <use xlink:href="#DejaVuSans-77" x="785.197266"/>
    <use xlink:href="#DejaVuSans-6f" x="866.984375"/>
    <use xlink:href="#DejaVuSans-6e" x="928.166016"/>
    <use xlink:href="#DejaVuSans-20" x="991.544922"/>
    <use xlink:href="#DejaVuSans-61" x="1023.332031"/>
    <use xlink:href="#DejaVuSans-63" x="1084.611328"/>
    <use xlink:href="#DejaVuSans-72" x="1139.591797"/>
    <use xlink:href="#DejaVuSans-6f" x="1178.455078"/>
    <use xlink:href="#DejaVuSans-73" x="1239.636719"/>
    <use xlink:href="#DejaVuSans-73" x="1291.736328"/>
    <use xlink:href="#DejaVuSans-20" x="1343.835938"/>
    <use xlink:href="#DejaVuSans-70" x="1375.623047"/>
    <use xlink:href="#DejaVuSans-6c" x="1439.099609"/>
    <use xlink:href="#DejaVuSans-61" x="1466.882812"/>
    <use xlink:href="#DejaVuSans-79" x="1528.162109"/>
    <use xlink:href="#DejaVuSans-6f" x="1587.341797"/>
    <use xlink:href="#DejaVuSans-66" x="1648.523438"/>
    <use xlink:href="#DejaVuSans-66" x="1683.728516"/>
    <use xlink:href="#DejaVuSans-2d" x="1713.433594"/>
    <use xlink:href="#DejaVuSans-73" x="1749.517578"/>
    <use xlink:href="#DejaVuSans-74" x="1801.617188"/>
    <use xlink:href="#DejaVuSans-61" x="1840.826172"/>
    <use xlink:href="#DejaVuSans-74" x="1902.105469"/>
    <use xlink:href="#DejaVuSans-75" x="1941.314453"/>
    <use xlink:href="#DejaVuSans-73" x="2004.693359"/>
    <use xlink:href="#DejaVuSans-20" x="2056.792969"/>
    <use xlink:href="#DejaVuSans-6d" x="2088.580078"/>
    <use xlink:href="#DejaVuSans-61" x="2185.992188"/>
    <use xlink:href="#DejaVuSans-74" x="2247.271484"/>
    <use xlink:href="#DejaVuSans-63" x="2286.480469"/>
    <use xlink:href="#DejaVuSans-68" x="2341.460938"/>
    <use xlink:href="#DejaVuSans-75" x="2404.839844"/>
    <use xlink:href="#DejaVuSans-70" x="2468.21875"/>
    <use xlink:href="#DejaVuSans-73" x="2531.695312"/>
   </g>
  </g>
 </g>
 <defs>
  <clipPath id="pb93c2b0b25">
   <rect x="47.72" y="50.64" width="359.59" height="264.728441"/>
  </clipPath>
  <clipPath id="p69a6230c81">
   <rect x="421.61" y="50.64" width="359.59" height="264.728441"/>
  </clipPath>
 </defs>
</svg>
